<?xml version="1.0" standalone="no"?>
<!DOCTYPE svg PUBLIC "-//W3C//DTD SVG 20010904//EN"
 "http://www.w3.org/TR/2001/REC-SVG-20010904/DTD/svg10.dtd">
<svg version="1.0" xmlns="http://www.w3.org/2000/svg"
 width="899.000000pt" height="811.000000pt" viewBox="0 0 899.000000 811.000000"
 preserveAspectRatio="xMidYMid meet">

<g transform="translate(0.000000,811.000000) scale(0.100000,-0.100000)"
fill="#000000" stroke="none">
<path d="M4210 7803 c-440 -43 -718 -105 -1060 -238 -246 -96 -516 -231 -717
-361 -121 -78 -338 -242 -406 -305 -31 -30 -57 -52 -57 -50 0 3 -54 -48 -121
-114 -588 -585 -946 -1266 -1072 -2045 -40 -246 -51 -388 -51 -645 0 -489 91
-946 279 -1406 43 -104 141 -309 154 -319 3 -3 7 -12 9 -20 11 -53 209 -368
335 -534 159 -209 255 -309 538 -562 162 -144 522 -374 784 -499 400 -192 815
-313 1255 -367 167 -21 673 -17 840 5 685 93 1314 350 1857 758 51 39 93 75
93 80 0 5 4 8 9 7 14 -5 166 131 307 274 156 158 275 304 399 488 350 522 567
1125 630 1751 17 176 20 558 5 729 -31 342 -123 716 -257 1045 -63 155 -194
415 -206 408 -6 -3 -7 -2 -4 4 11 18 -138 257 -267 428 -441 588 -1110 1067
-1831 1310 -243 81 -578 152 -835 175 -105 9 -526 12 -610 3z m85 -389 c4 -36
4 -68 2 -71 -3 -2 -59 -11 -124 -19 -65 -7 -118 -14 -118 -14 0 0 1 -19 3 -41
l4 -41 62 6 c33 4 79 9 101 12 l41 6 9 -65 10 -65 -45 -6 c-25 -3 -71 -8 -104
-12 l-58 -7 5 -39 c3 -22 7 -41 9 -42 6 -5 182 14 215 23 32 9 33 8 39 -27 3
-21 10 -54 14 -75 4 -20 5 -39 1 -41 -3 -2 -49 -7 -101 -11 -52 -4 -144 -13
-205 -20 -121 -15 -125 -14 -125 42 0 43 -58 502 -65 513 -5 8 52 17 265 44
172 22 157 26 165 -50z m447 26 c13 -15 66 -89 118 -164 51 -75 97 -136 101
-136 4 0 10 24 14 53 10 78 36 231 40 235 5 5 148 -20 157 -27 4 -3 -9 -105
-28 -226 -18 -121 -37 -248 -40 -283 -4 -34 -10 -64 -13 -67 -4 -2 -37 4 -73
13 l-67 17 -111 158 c-62 87 -114 156 -117 154 -2 -3 -11 -67 -19 -143 -8 -75
-16 -139 -18 -142 -3 -2 -41 -1 -86 3 l-81 7 6 42 c13 96 45 444 45 487 0 25
2 48 4 50 2 2 36 3 75 1 63 -3 73 -6 93 -32z m1008 -196 c74 -25 138 -49 142
-53 4 -3 -5 -37 -20 -74 -19 -49 -31 -66 -42 -63 -8 3 -42 14 -74 25 -33 12
-64 21 -71 21 -9 0 -96 -267 -121 -372 -3 -16 -9 -28 -12 -28 -13 0 -148 43
-155 49 -4 4 22 95 58 202 36 106 65 197 65 201 0 4 -39 19 -86 34 -77 24 -85
29 -79 48 3 12 11 44 17 72 l11 50 116 -33 c64 -19 177 -54 251 -79z m-2145
57 c16 -9 43 -36 60 -60 26 -36 30 -52 30 -105 0 -52 -5 -70 -28 -105 -15 -23
-25 -46 -22 -52 4 -5 41 -37 84 -72 42 -34 78 -66 80 -71 1 -5 -33 -22 -75
-38 -64 -23 -80 -26 -93 -15 -9 7 -46 39 -82 70 -59 50 -71 56 -97 51 l-31 -6
25 -67 c39 -101 39 -100 -40 -127 -39 -13 -73 -24 -77 -24 -4 0 -10 12 -14 27
-8 33 -158 409 -185 466 -11 22 -19 41 -17 42 8 7 224 80 282 96 80 21 152 18
200 -10z m-831 -568 c14 -10 29 -28 35 -41 35 -75 -18 -162 -99 -162 -34 0
-48 6 -76 34 -28 28 -34 42 -34 76 0 52 13 76 53 101 37 23 83 20 121 -8z
m3499 13 c47 -19 69 -49 74 -100 5 -42 3 -48 -30 -81 -29 -29 -42 -35 -77 -35
-53 0 -95 29 -110 76 -14 42 -8 71 21 108 35 45 70 54 122 32z m-1393 -165
c538 -87 1016 -326 1407 -705 434 -419 709 -952 789 -1531 22 -162 22 -461 0
-620 -19 -134 -69 -335 -116 -470 -46 -132 -187 -414 -270 -540 -428 -650
-1087 -1072 -1855 -1187 -139 -20 -589 -17 -733 5 -285 45 -539 128 -803 263
-771 392 -1304 1122 -1421 1949 -16 115 -16 473 0 590 62 444 214 823 478
1191 119 166 321 379 489 516 359 292 881 505 1365 557 143 16 526 6 670 -18z
m-2536 -207 c38 15 70 25 73 23 2 -3 -7 -33 -21 -68 -15 -34 -26 -67 -26 -71
0 -5 20 -36 45 -68 25 -32 45 -61 45 -64 0 -3 -37 -2 -83 1 l-83 6 -40 -62
c-21 -33 -42 -61 -46 -61 -6 0 -28 89 -31 130 -1 20 -22 30 -105 46 -18 4 -35
10 -38 15 -5 9 31 34 96 65 l40 19 0 76 c0 42 3 78 6 82 4 3 27 -17 53 -45
l47 -52 68 28z m4513 -124 c37 -19 68 -40 70 -46 2 -6 -25 -17 -64 -25 l-68
-14 -14 -78 c-7 -43 -17 -77 -22 -75 -4 2 -25 28 -47 58 l-38 55 -87 -3 c-48
-1 -87 0 -87 2 0 3 23 33 51 66 l51 62 -31 69 c-17 38 -31 71 -31 73 0 3 32
-6 72 -20 l72 -24 51 50 50 50 3 -82 3 -83 66 -35z m-5020 -364 l52 -50 93 -4
c51 -2 95 -6 98 -9 5 -4 -56 -64 -116 -113 -28 -23 -32 -35 -44 -118 -7 -51
-16 -95 -20 -97 -4 -2 -33 31 -65 75 l-57 80 -76 1 c-43 1 -90 4 -105 8 l-28
6 48 36 c26 20 65 47 86 60 l37 24 -6 100 -7 100 29 -25 c16 -13 52 -47 81
-74z m5383 -4 l0 -98 82 -59 c76 -55 81 -60 58 -66 -14 -4 -59 -7 -101 -8
l-77 -1 -60 -79 c-33 -44 -62 -77 -65 -74 -3 3 -11 45 -18 94 l-13 89 -73 66
c-41 37 -71 69 -68 73 4 3 46 9 95 12 l89 6 68 72 c37 39 71 71 75 71 4 0 8
-44 8 -98z m-5627 -604 c26 5 47 6 47 1 0 -5 -9 -27 -21 -49 l-21 -40 21 -36
c12 -19 21 -36 21 -38 0 -2 -23 1 -51 7 l-51 10 -34 -39 -33 -39 -1 36 c0 47
-16 65 -70 79 -44 12 -44 12 -23 29 11 9 34 23 51 32 25 14 31 25 37 70 l7 53
37 -42 c36 -43 36 -43 84 -34z m5897 16 c0 -42 2 -45 50 -75 28 -17 48 -34 45
-39 -3 -5 -23 -11 -45 -15 -32 -5 -41 -12 -45 -31 -3 -13 -8 -36 -11 -51 l-6
-28 -33 39 c-32 38 -33 39 -85 32 l-52 -7 21 34 c27 44 27 51 -6 94 l-28 36
57 -6 56 -7 32 40 c17 22 36 38 41 34 5 -3 9 -25 9 -50z m-6060 -1187 c0 -864
-7 -784 85 -967 64 -127 76 -165 76 -232 0 -84 -28 -127 -83 -128 -33 0 -33 5
-12 56 26 63 15 133 -40 254 -27 58 -63 143 -80 190 l-31 85 -3 616 -3 616
-40 -7 c-96 -18 -181 40 -149 100 l11 21 26 -21 c62 -48 144 -7 158 81 3 24 9
52 12 62 5 18 34 35 61 36 9 1 12 -158 12 -762z m6147 738 c11 -8 24 -31 28
-52 12 -64 32 -101 65 -118 35 -18 62 -13 89 16 17 19 20 19 35 4 54 -54 -33
-125 -133 -109 l-40 6 -4 -618 c-3 -701 6 -624 -98 -845 -59 -126 -63 -138
-63 -209 0 -41 3 -90 8 -108 9 -33 9 -33 -24 -30 -53 5 -75 44 -75 131 0 68 4
79 72 222 39 83 77 170 83 195 7 31 10 272 8 788 -3 805 -6 765 49 727z
m-5425 -2599 c-24 -89 -35 -146 -28 -146 11 0 206 34 261 45 28 6 35 1 82 -53
l52 -59 -57 -55 c-82 -80 -391 -348 -400 -348 -5 0 -24 21 -43 47 -19 25 -40
54 -47 63 -11 15 0 27 91 102 57 48 109 94 117 103 12 14 11 16 -11 11 -48
-11 -251 -28 -257 -22 -3 4 11 64 30 134 20 70 35 128 33 131 -2 2 -59 -40
-127 -93 -105 -82 -124 -93 -133 -80 -5 9 -27 39 -48 66 -21 26 -35 53 -32 57
3 5 71 58 152 118 81 59 188 138 237 175 l91 67 38 -58 38 -58 -39 -147z
m4849 200 c51 -34 84 -101 76 -157 l-5 -39 77 0 c71 0 185 -15 204 -27 4 -2
-9 -35 -30 -73 l-37 -69 -60 5 c-34 3 -104 1 -156 -3 -125 -11 -128 -22 -23
-99 43 -32 80 -59 82 -61 2 -1 -22 -33 -54 -71 l-57 -69 -206 164 c-114 90
-223 177 -242 192 l-35 28 75 89 c156 186 214 228 302 221 30 -3 63 -14 89
-31z m-548 -463 c65 -73 68 -63 -43 -150 -54 -43 -99 -82 -100 -87 0 -12 41
-56 53 -56 11 0 116 80 141 108 l18 21 44 -47 c24 -26 43 -50 44 -54 0 -4 -36
-35 -80 -69 -44 -34 -80 -65 -80 -69 0 -4 10 -20 22 -36 12 -16 23 -31 24 -32
4 -6 96 59 156 111 l57 49 51 -44 c55 -47 59 -59 31 -79 -11 -8 -66 -52 -123
-99 -56 -47 -128 -105 -160 -128 l-56 -41 -18 27 c-22 34 -133 176 -248 317
-49 61 -93 115 -98 121 -5 7 32 41 100 92 59 45 134 104 167 131 33 28 61 51
63 51 1 0 17 -16 35 -37z m-3504 -265 c31 -22 57 -42 59 -44 4 -2 -108 -581
-117 -606 -5 -14 -16 -10 -81 29 -41 25 -77 47 -79 49 -4 3 13 78 24 106 4 10
-23 34 -89 78 l-95 62 -56 -31 c-30 -17 -60 -31 -67 -31 -15 1 -135 106 -128
113 3 2 111 64 240 137 129 73 253 144 275 157 22 12 44 23 49 23 5 0 34 -19
65 -42z m3025 -127 c14 -35 24 -67 21 -71 -2 -4 -26 -15 -52 -25 -26 -10 -78
-33 -116 -52 l-67 -33 20 -39 20 -39 50 24 c27 13 54 24 59 24 4 0 25 11 46
25 20 15 38 25 39 23 0 -2 15 -30 32 -62 l31 -59 -98 -48 c-55 -27 -99 -51
-99 -54 0 -13 30 -75 36 -75 4 0 59 27 122 60 63 34 118 57 122 53 16 -18 70
-105 70 -111 0 -9 -357 -189 -390 -196 -24 -6 -29 2 -99 157 -41 89 -99 211
-128 271 -29 60 -52 110 -51 111 2 2 90 40 196 85 106 45 195 87 198 92 8 13
8 12 38 -61z m-2411 -176 c52 -15 53 -16 120 -128 129 -216 154 -252 160 -231
4 10 16 71 27 134 31 165 20 150 93 133 34 -7 71 -15 83 -18 20 -4 20 -5 -8
-147 -16 -79 -40 -210 -54 -292 -14 -82 -27 -153 -30 -158 -3 -5 -13 -7 -22
-4 -10 3 -36 10 -59 16 -39 10 -47 18 -125 140 -46 71 -98 155 -117 186 -18
31 -37 52 -41 47 -4 -4 -19 -71 -34 -147 -14 -76 -28 -141 -30 -143 -5 -5
-146 37 -159 47 -4 3 20 128 53 277 33 149 60 281 60 293 0 16 4 20 15 16 9
-3 39 -13 68 -21z m1758 -65 c35 -11 72 -27 83 -35 18 -13 17 -16 -22 -63 -61
-73 -65 -75 -98 -57 -41 21 -112 19 -152 -5 -90 -55 -96 -182 -13 -253 54 -45
110 -53 184 -25 26 10 33 28 27 68 -3 23 -6 24 -51 6 -46 -19 -59 -12 -59 30
0 12 -3 36 -6 53 -6 28 -4 31 17 31 13 0 74 13 135 29 l111 28 22 -116 c11
-64 21 -125 21 -136 0 -23 -56 -81 -111 -113 -57 -34 -155 -55 -227 -49 -189
18 -321 181 -292 361 32 199 228 310 431 246z m-702 -158 c19 -42 47 -104 62
-137 14 -33 45 -100 67 -150 22 -49 54 -120 71 -158 37 -81 38 -87 9 -87 -13
0 -52 -3 -88 -6 l-65 -6 -23 55 c-22 53 -26 56 -65 62 -23 3 -75 5 -116 3
l-75 -3 -20 -58 -21 -59 -90 7 c-49 4 -91 8 -92 9 -3 3 100 247 177 421 34 77
66 150 71 163 8 20 15 22 86 22 l78 0 34 -78z"/>
<path d="M3402 7159 c-70 -22 -69 -21 -33 -101 l16 -36 51 16 c96 31 124 72
80 117 -30 30 -33 30 -114 4z"/>
<path d="M4411 6259 c-18 -11 -135 -116 -259 -232 -124 -117 -264 -248 -311
-291 l-86 -79 -6 36 c-13 81 -38 88 -284 85 l-200 -3 -3 -282 -2 -281 -208
-199 c-114 -110 -279 -267 -366 -349 -91 -85 -165 -163 -173 -181 -17 -41 -17
-115 1 -156 31 -76 130 -127 204 -107 54 14 96 47 257 202 145 139 261 247
626 584 338 312 531 489 708 648 l164 147 31 -29 c52 -48 382 -350 515 -471
69 -63 245 -225 390 -360 145 -135 303 -282 351 -326 48 -44 150 -139 226
-210 192 -180 205 -189 268 -189 62 0 125 30 160 77 46 60 53 160 15 215 -8
11 -136 133 -284 272 -149 139 -314 296 -367 349 l-98 96 0 261 c0 145 -3 269
-6 278 -5 14 -32 16 -200 16 -116 0 -202 -4 -217 -11 -27 -12 -48 -42 -56 -80
-6 -25 -24 -10 -316 263 -170 159 -323 298 -340 309 -39 25 -92 24 -134 -2z
m-205 -417 c37 -24 34 -77 -6 -105 -11 -8 -98 -89 -193 -179 -231 -221 -239
-228 -274 -228 -34 0 -58 36 -45 69 4 11 53 62 109 113 55 51 160 148 232 216
122 114 150 132 177 114z"/>
<path d="M4354 5487 c-60 -56 -216 -199 -344 -317 -129 -118 -282 -260 -341
-315 -58 -55 -190 -176 -292 -270 l-187 -170 0 -592 0 -592 -354 -3 c-338 -3
-355 -4 -376 -23 -62 -55 -59 -145 8 -190 l37 -25 1960 0 c1846 0 1962 1 1995
18 50 25 83 78 75 121 -8 44 -22 65 -56 85 -24 14 -72 16 -373 16 l-346 0 0
589 0 588 -152 139 c-84 76 -274 252 -422 389 -493 457 -709 655 -715 655 -3
0 -56 -46 -117 -103z m169 -248 c12 -16 17 -34 13 -46 -4 -11 -79 -89 -169
-173 -89 -84 -295 -283 -459 -442 -257 -250 -300 -288 -327 -288 -37 0 -66 37
-57 72 6 24 314 335 691 697 206 198 222 211 254 209 23 -2 40 -11 54 -29z
m-143 -980 l0 -171 -31 6 c-17 3 -96 6 -175 6 l-144 0 0 165 0 165 175 0 175
0 0 -171z m530 7 c0 -161 0 -164 -22 -170 -13 -3 -92 -6 -175 -6 l-153 0 0
170 0 170 175 0 175 0 0 -164z m-530 -511 l0 -175 -175 0 -175 0 0 175 0 175
175 0 175 0 0 -175z m530 0 l0 -175 -175 0 -175 0 0 175 0 175 175 0 175 0 0
-175z"/>
<path d="M4414 2830 c-150 -21 -262 -95 -341 -222 -20 -32 -41 -58 -48 -58 -7
0 -133 26 -281 59 -898 197 -840 185 -884 172 -102 -30 -109 -182 -11 -225 20
-9 70 -23 111 -31 41 -9 170 -38 285 -65 116 -27 287 -65 380 -86 94 -20 219
-48 279 -63 l108 -27 22 -67 c82 -260 380 -388 633 -272 106 48 216 179 244
288 6 27 17 51 23 53 6 2 274 65 596 139 523 121 587 138 612 162 53 51 45
147 -16 184 -37 23 -89 24 -176 3 -248 -58 -1044 -234 -1045 -231 -3 15 -56
101 -79 131 -89 111 -263 177 -412 156z m157 -277 c35 -19 64 -43 84 -71 27
-39 30 -52 30 -117 0 -65 -3 -78 -30 -116 -41 -58 -84 -86 -146 -94 -75 -10
-133 9 -190 64 -177 172 30 446 252 334z"/>
<path d="M6801 2263 c-23 -27 -41 -53 -41 -59 0 -15 89 -76 102 -68 19 12 68
98 68 120 0 26 -34 54 -66 54 -14 0 -38 -18 -63 -47z"/>
<path d="M2753 1512 c-35 -20 -63 -39 -63 -42 0 -3 23 -20 52 -38 l52 -32 18
73 c9 39 17 73 18 75 1 8 -22 -3 -77 -36z"/>
<path d="M4476 979 c-15 -39 -25 -74 -22 -76 2 -2 29 -3 59 -1 l56 3 -26 65
c-14 36 -29 69 -33 73 -4 5 -19 -24 -34 -64z"/>
</g>
</svg>
